<?xml version="1.0" encoding="UTF-8" standalone="no"?>
<!-- Created with Inkscape (http://www.inkscape.org/) -->

<svg
   xmlns:dc="http://purl.org/dc/elements/1.1/"
   xmlns:cc="http://creativecommons.org/ns#"
   xmlns:rdf="http://www.w3.org/1999/02/22-rdf-syntax-ns#"
   xmlns:svg="http://www.w3.org/2000/svg"
   xmlns="http://www.w3.org/2000/svg"
   xmlns:sodipodi="http://sodipodi.sourceforge.net/DTD/sodipodi-0.dtd"
   xmlns:inkscape="http://www.inkscape.org/namespaces/inkscape"
   width="216.62502"
   height="178.96881"
   id="svg4307"
   version="1.1"
   inkscape:version="0.48.5 r10040"
   sodipodi:docname="New document 6">
  <defs
     id="defs4309" />
  <sodipodi:namedview
     id="base"
     pagecolor="#ffffff"
     bordercolor="#666666"
     borderopacity="1.0"
     inkscape:pageopacity="0.0"
     inkscape:pageshadow="2"
     inkscape:zoom="1.4"
     inkscape:cx="197.07045"
     inkscape:cy="-19.072761"
     inkscape:document-units="px"
     inkscape:current-layer="layer1"
     showgrid="false"
     fit-margin-top="0"
     fit-margin-left="0"
     fit-margin-right="0"
     fit-margin-bottom="0"
     inkscape:window-width="927"
     inkscape:window-height="1048"
     inkscape:window-x="2904"
     inkscape:window-y="0"
     inkscape:window-maximized="0" />
  <metadata
     id="metadata4312">
    <rdf:RDF>
      <cc:Work
         rdf:about="">
        <dc:format>image/svg+xml</dc:format>
        <dc:type
           rdf:resource="http://purl.org/dc/dcmitype/StillImage" />
        <dc:title></dc:title>
      </cc:Work>
    </rdf:RDF>
  </metadata>
  <g
     inkscape:label="Layer 1"
     inkscape:groupmode="layer"
     id="layer1"
     transform="translate(-114.54463,-285.73498)">
    <g
       id="g4253"
       transform="matrix(0.94192522,0,0,0.94192522,-41.807841,2002.5265)">
      <path
         transform="translate(-15.4132,8.0000087)"
         style="fill:#cf3007;fill-opacity:1;fill-rule:nonzero;stroke:none"
         d="m 385.50892,-1830.641 c -2.28826,0 -4.11391,1.8257 -4.11391,4.1139 l 0,155.8975 -10.01937,0 0,-75.0126 c 0,-2.77 -2.20652,-5.0097 -4.97651,-5.0097 l -20.00557,0 c -2.77,0 -5.00969,2.2397 -5.00969,5.0097 l 0,75.0126 -9.9862,0 0,-116.0522 c 0,-2.1869 -1.76119,-3.948 -3.94803,-3.948 l -22.12888,0 c -2.18684,0 -3.94803,1.7611 -3.94803,3.948 l 0,121.0287 0,20.0056 0,1.0616 c 0,2.1869 1.76119,3.9481 3.94803,3.9481 l 1.06166,0 21.06722,0 78.92745,0 0.89577,0 c 2.28826,0 4.11391,-1.8589 4.11391,-4.1471 l 0,-0.8626 0,-20.0056 0,-160.874 c 0,-2.2882 -1.82565,-4.1139 -4.11391,-4.1139 l -21.76394,0 z"
         id="rect4627-4-6-6-1"
         inkscape:connector-curvature="0" />
      <path
         inkscape:connector-curvature="0"
         id="rect4627-9"
         d="m 171,-1822.6378 c -2.77,0 -5,2.23 -5,5 l 0,20 c 0,0.1731 -0.017,0.3315 0,0.5 l 0,59 c -0.017,0.1685 0,0.3269 0,0.5 l 0,20 c 0,2.77 2.23,5 5,5 l 75,0 0,50 -75,0 c -2.77,0 -5,2.23 -5,5 l 0,20 c 0,2.77 2.23,5 5,5 l 100,0 c 2.77,0 5,-2.23 5,-5 l 0,-20 0,-60 0,-20 c 0,-2.77 -2.23,-5 -5,-5 l -75,0 0,-50 156,0 c 2.77,0 5,-2.23 5,-5 l 0,-20 c 0,-2.77 -2.23,-5 -5,-5 l -161,0 z"
         style="fill:#a2181f;fill-opacity:1;fill-rule:nonzero;stroke:none"
         sodipodi:nodetypes="sssccsssccssssssccssccsssscs" />
    </g>
  </g>
</svg>
