<?xml version="1.0" encoding="UTF-8" standalone="no"?>
<!-- Created with Inkscape (http://www.inkscape.org/) -->

<svg
   xmlns:dc="http://purl.org/dc/elements/1.1/"
   xmlns:cc="http://creativecommons.org/ns#"
   xmlns:rdf="http://www.w3.org/1999/02/22-rdf-syntax-ns#"
   xmlns:svg="http://www.w3.org/2000/svg"
   xmlns="http://www.w3.org/2000/svg"
   xmlns:sodipodi="http://sodipodi.sourceforge.net/DTD/sodipodi-0.dtd"
   xmlns:inkscape="http://www.inkscape.org/namespaces/inkscape"
   width="216.625"
   height="178.96875"
   id="svg4257"
   version="1.1"
   inkscape:version="0.48.5 r10040"
   sodipodi:docname="New document 4">
  <defs
     id="defs4259" />
  <sodipodi:namedview
     id="base"
     pagecolor="#ffffff"
     bordercolor="#666666"
     borderopacity="1.0"
     inkscape:pageopacity="0.0"
     inkscape:pageshadow="2"
     inkscape:zoom="1.979899"
     inkscape:cx="43.208556"
     inkscape:cy="69.124361"
     inkscape:document-units="px"
     inkscape:current-layer="layer1"
     showgrid="false"
     fit-margin-top="0"
     fit-margin-left="0"
     fit-margin-right="0"
     fit-margin-bottom="0"
     inkscape:window-width="927"
     inkscape:window-height="1048"
     inkscape:window-x="1975"
     inkscape:window-y="0"
     inkscape:window-maximized="0" />
  <metadata
     id="metadata4262">
    <rdf:RDF>
      <cc:Work
         rdf:about="">
        <dc:format>image/svg+xml</dc:format>
        <dc:type
           rdf:resource="http://purl.org/dc/dcmitype/StillImage" />
        <dc:title></dc:title>
      </cc:Work>
    </rdf:RDF>
  </metadata>
  <g
     inkscape:label="Layer 1"
     inkscape:groupmode="layer"
     id="layer1"
     transform="translate(-384.95352,-421.1946)">
    <g
       transform="matrix(0.94192522,0,0,0.94192522,1251.5093,2001.4022)"
       id="g4935">
      <path
         inkscape:connector-curvature="0"
         id="rect4627"
         transform="matrix(1.0616554,0,0,1.0616554,-1123.4897,-1819.2674)"
         d="m 196.375,133.40625 c -2.60913,0 -4.6875,2.10962 -4.6875,4.71875 l 0,18.8125 0,56.53125 0,18.84375 c 0,2.60913 2.07837,4.71875 4.6875,4.71875 l 70.65625,0 0,47.09375 -70.65625,0 c -2.60913,0 -4.6875,2.07837 -4.6875,4.6875 l 0,18.84375 c 0,2.60913 2.07837,4.71875 4.6875,4.71875 l 94.1875,0 c 2.60913,0 4.71875,-2.10962 4.71875,-4.71875 l 0,-18.84375 0,-56.5 0,-18.84375 c 0,-2.60913 -2.10962,-4.71875 -4.71875,-4.71875 l -70.625,0 0,-47.09375 146.9375,0 c 2.60913,0 4.71875,-2.10962 4.71875,-4.71875 l 0,-18.8125 c 0,-2.60913 -2.10962,-4.71875 -4.71875,-4.71875 l -151.65625,0 -18.84375,0 z"
         style="fill:#df2a33;fill-opacity:1;fill-rule:nonzero;stroke:none" />
      <path
         inkscape:connector-curvature="0"
         id="rect4627-4-6-6"
         transform="matrix(1.0616554,0,0,1.0616554,-1123.4897,-1819.2674)"
         d="m 383.9375,133.40625 c -2.15537,0 -3.875,1.71963 -3.875,3.875 l 0,146.84375 -9.4375,0 0,-70.65625 c 0,-2.60913 -2.07837,-4.71875 -4.6875,-4.71875 l -18.84375,0 c -2.60913,0 -4.71875,2.10962 -4.71875,4.71875 l 0,70.65625 -9.40625,0 0,-109.3125 c 0,-2.05984 -1.65891,-3.71875 -3.71875,-3.71875 l -20.84375,0 c -2.05984,0 -3.71875,1.65891 -3.71875,3.71875 l 0,114 0,18.84375 0,1 c 0,2.05984 1.65891,3.71875 3.71875,3.71875 l 1,0 19.84375,0 74.34375,0 0.84375,0 c 2.15537,0 3.875,-1.75088 3.875,-3.90625 l 0,-0.8125 0,-18.84375 0,-151.53125 c 0,-2.15537 -1.71963,-3.875 -3.875,-3.875 l -20.5,0 z"
         style="fill:#f8572d;fill-opacity:1;fill-rule:nonzero;stroke:none" />
    </g>
  </g>
</svg>
