<?xml version="1.0" encoding="UTF-8" standalone="no"?>
<svg
   xmlns:dc="http://purl.org/dc/elements/1.1/"
   xmlns:cc="http://creativecommons.org/ns#"
   xmlns:rdf="http://www.w3.org/1999/02/22-rdf-syntax-ns#"
   xmlns:svg="http://www.w3.org/2000/svg"
   xmlns="http://www.w3.org/2000/svg"
   xmlns:sodipodi="http://sodipodi.sourceforge.net/DTD/sodipodi-0.dtd"
   xmlns:inkscape="http://www.inkscape.org/namespaces/inkscape"
   viewBox="0 0 256 256"
   id="svg3015"
   version="1.1"
   inkscape:version="0.48.4 r9939"
   width="256"
   height="256"
   sodipodi:docname="html.svg">
  <metadata
     id="metadata3043">
    <rdf:RDF>
      <cc:Work
         rdf:about="">
        <dc:format>image/svg+xml</dc:format>
        <dc:type
           rdf:resource="http://purl.org/dc/dcmitype/StillImage" />
        <dc:title>HTML5 Logo</dc:title>
      </cc:Work>
    </rdf:RDF>
  </metadata>
  <defs
     id="defs3041" />
  <sodipodi:namedview
     pagecolor="#ffffff"
     bordercolor="#666666"
     borderopacity="1"
     objecttolerance="10"
     gridtolerance="10"
     guidetolerance="10"
     inkscape:pageopacity="0"
     inkscape:pageshadow="2"
     inkscape:window-width="754"
     inkscape:window-height="423"
     id="namedview3039"
     showgrid="false"
     fit-margin-top="0"
     fit-margin-left="0"
     fit-margin-right="0"
     fit-margin-bottom="0"
     showborder="true"
     inkscape:zoom="1.4589844"
     inkscape:cx="65.336599"
     inkscape:cy="128"
     inkscape:window-x="820"
     inkscape:window-y="-6"
     inkscape:window-maximized="0"
     inkscape:current-layer="svg3015" />
  <title
     id="title3017">HTML5 Logo</title>
  <g
     id="g3045"
     transform="matrix(0.512,0,0,0.512,-3.072,-3.072)">
    <polygon
       transform="matrix(1,0,0,0.9765625,0,6)"
       style="fill:#e44d26"
       id="polygon3019"
       points="255.778,512 107.644,470.877 74.633,100.62 437.367,100.62 404.321,470.819 " />
    <polygon
       transform="matrix(1,0,0,0.9765625,0,6)"
       style="fill:#f16529"
       id="polygon3021"
       points="376.03,447.246 404.27,130.894 256,130.894 256,480.523 " />
    <polygon
       transform="matrix(1,0,0,0.9765625,0,6)"
       style="fill:#ebebeb"
       id="polygon3023"
       points="256,313.627 256,268.217 195.91,268.217 191.76,221.716 256,221.716 256,176.305 255.843,176.305 142.132,176.305 143.219,188.488 154.38,313.627 " />
    <polygon
       transform="matrix(1,0,0,0.9765625,0,6)"
       style="fill:#ebebeb"
       id="polygon3025"
       points="162.771,407.634 255.791,433.457 256,433.399 256,386.153 255.801,386.206 205.227,372.55 201.994,336.333 177.419,336.333 156.409,336.333 " />
    <path
       inkscape:connector-curvature="0"
       id="path3027"
       d="m 108.382,6 h 23.077 v 22.265625 h 21.11 V 6 h 23.078 V 73.425781 H 152.57 V 50.847656 H 131.46 V 73.425781 H 108.383 V 6 z" />
    <path
       inkscape:connector-curvature="0"
       id="path3029"
       d="M 205.994,28.359375 H 185.678 V 6 h 63.72 V 28.359375 H 229.073 V 73.425781 H 205.995 V 28.359375 z" />
    <path
       inkscape:connector-curvature="0"
       id="path3031"
       d="m 259.511,6 h 24.063 L 298.376,29.691406 313.163,6 h 24.072 V 73.425781 H 314.253 V 40.005859 l -15.877,23.973633 h -0.397 L 282.091,40.005859 v 33.419922 h -22.58 V 6 z" />
    <path
       inkscape:connector-curvature="0"
       id="path3033"
       d="m 348.72,6 h 23.084 v 45.138672 h 32.453 V 73.425781 H 348.72 V 6 z" />
    <polygon
       transform="matrix(1,0,0,0.9765625,0,6)"
       style="fill:#ffffff"
       id="polygon3035"
       points="306.49,372.521 255.843,386.191 255.843,433.435 348.937,407.634 349.62,399.962 360.291,280.411 361.399,268.217 349.162,268.217 255.843,268.217 255.843,313.627 311.761,313.627 " />
    <polygon
       transform="matrix(1,0,0,0.9765625,0,6)"
       style="fill:#ffffff"
       id="polygon3037"
       points="369.597,176.305 255.843,176.305 255.843,204.509 255.843,221.605 255.843,221.716 365.385,221.716 365.385,221.716 365.531,221.716 366.442,211.509 368.511,188.488 " />
  </g>
</svg>
